<svg width="25" height="25" viewBox="0 0 25 25" fill="none" xmlns="http://www.w3.org/2000/svg">
<path d="M20.2949 4.96076C18.9078 4.31176 17.4246 3.8401 15.874 3.57153C15.6836 3.91583 15.4611 4.37891 15.3077 4.7473C13.6594 4.49941 12.0262 4.49941 10.4082 4.7473C10.2548 4.37891 10.0273 3.91583 9.83517 3.57153C8.28289 3.8401 6.79802 4.3135 5.41091 4.96419C2.6131 9.19206 1.85466 13.3149 2.23388 17.3792C4.08954 18.765 5.88789 19.6068 7.6559 20.1576C8.09243 19.5568 8.48175 18.9182 8.81715 18.2451C8.17838 18.0024 7.56657 17.7029 6.98848 17.3551C7.14185 17.2415 7.29186 17.1227 7.43679 17.0005C10.9627 18.6496 14.7937 18.6496 18.2775 17.0005C18.4241 17.1227 18.5741 17.2415 18.7258 17.3551C18.146 17.7046 17.5325 18.0041 16.8937 18.2468C17.2291 18.9182 17.6168 19.5586 18.055 20.1593C19.8247 19.6085 21.6247 18.7667 23.4804 17.3792C23.9253 12.6676 22.7203 8.58266 20.2949 4.96076ZM9.2975 14.8797C8.23906 14.8797 7.37105 13.8916 7.37105 12.6883C7.37105 11.485 8.22053 10.4952 9.2975 10.4952C10.3745 10.4952 11.2425 11.4833 11.224 12.6883C11.2256 13.8916 10.3745 14.8797 9.2975 14.8797ZM16.4168 14.8797C15.3583 14.8797 14.4903 13.8916 14.4903 12.6883C14.4903 11.485 15.3398 10.4952 16.4168 10.4952C17.4937 10.4952 18.3617 11.4833 18.3432 12.6883C18.3432 13.8916 17.4937 14.8797 16.4168 14.8797Z" fill="white"/>
</svg>
