<svg width="25" height="25" viewBox="0 0 25 25" fill="none" xmlns="http://www.w3.org/2000/svg">
<path d="M20.8334 7.33112C20.2202 7.60312 19.5611 7.78687 18.8695 7.86953C19.5754 7.44637 20.1177 6.77628 20.3729 5.97778C19.7122 6.3697 18.9804 6.6542 18.2015 6.80753C17.5779 6.14295 16.6892 5.72778 15.7057 5.72778C13.8174 5.72778 12.2863 7.2587 12.2863 9.14703C12.2863 9.41503 12.3165 9.67603 12.3748 9.92628C9.53294 9.7837 7.01344 8.42237 5.32694 6.35362C5.0326 6.85862 4.86394 7.44595 4.86394 8.07262C4.86394 9.25895 5.4676 10.3055 6.3851 10.9187C5.8246 10.9009 5.29735 10.7471 4.83635 10.491C4.83602 10.5053 4.83602 10.5196 4.83602 10.534C4.83602 12.1907 6.01469 13.5727 7.57894 13.8869C7.29202 13.965 6.98994 14.0068 6.6781 14.0068C6.45777 14.0068 6.2436 13.9853 6.03477 13.9454C6.46994 15.3039 7.73269 16.2925 9.22902 16.32C8.05877 17.2372 6.58444 17.7838 4.98235 17.7838C4.70635 17.7838 4.43419 17.7676 4.16669 17.7359C5.67994 18.7062 7.47727 19.2724 9.40827 19.2724C15.6977 19.2724 19.1371 14.062 19.1371 9.54345C19.1371 9.3952 19.1338 9.24778 19.1272 9.10103C19.7953 8.61903 20.3749 8.01678 20.8334 7.33112Z" fill="white"/>
</svg>
